<?xml version="1.0" encoding="utf-8"?>
<!-- Generator: Adobe Illustrator 27.3.1, SVG Export Plug-In . SVG Version: 6.00 Build 0)  -->
<svg version="1.1" id="Capa_2_00000041287207804436875880000004795377218895914943_"
	 xmlns="http://www.w3.org/2000/svg" xmlns:xlink="http://www.w3.org/1999/xlink" x="0px" y="0px" viewBox="0 0 1000 1000"
	 style="enable-background:new 0 0 1000 1000;" xml:space="preserve">
<style type="text/css">
	.st0{fill:#FCFCFC;}
</style>
<g id="Capa_1-2">
	<path class="st0" d="M485.8,9.9c2.3-3,3.4-6.2,3.9-9.9h-29.6l-27.6,5.9c-3.7,0.8-7.8,1.7-9.6,1.7c-0.8-1.3-2.1-4.5-3.4-7.6h-21.5
		c0.3,0.8,0.6,1.6,1,2.4l1.4,3.6c3.7,9.5,6.2,15.7,13,19.4c2.1,1.1,4.1,1.8,6.3,2l0.5,2.5c2.5,11.5,4.1,19.1,11.4,23.9
		c3.4,2.2,6.8,3,10.7,3c4.5,0,9.5-1.1,15.7-2.4c11.5-2.5,19.1-4.1,23.9-11.4c4.7-7.3,3.1-14.9,0.6-26.4l-0.6-2.9
		C483.4,12.7,484.7,11.4,485.8,9.9L485.8,9.9z M453.9,34.8c-4.3,0.9-9.2,2-11.2,2c-0.8-1.9-1.9-6.7-2.8-11.1l-0.2-0.9l23.1-5
		l0.2,0.9c0.9,4.3,2,9.2,2,11.2C463.1,32.9,458.2,33.9,453.9,34.8L453.9,34.8z"/>
	<path class="st0" d="M252.3,54.8c-6.6-19-19.2-32.6-35.6-38.4c-11.9-4.2-23.8-3.6-33.8-1.5c3.8-6.1,9.6-13.1,17.4-14.9h-31.6
		c-2.3,3.2-4.2,6.4-5.7,9.2c-1.9-2.5-4.1-5.1-6.6-7.6c-0.5-0.5-1.1-1.1-1.7-1.6H74.9C62.8,9.6,53.3,22.8,48.2,37.1
		C35.7,72.4,30.1,102.7,40.7,145c0,0.2,0.1,0.4,0.2,0.5c10,32.3,34.9,46.9,66.7,39.1c2-0.5,4.6,0.4,5.8,2.1
		c11.6,15.3,26.2,23.1,42.1,23.1c11.1,0,22.7-3.8,34.3-11.6c0.1-0.1,0.3-0.2,0.4-0.3c34.9-26.2,49.6-53.3,62.1-88.6
		C258.3,92.1,258.4,72.2,252.3,54.8L252.3,54.8z M233.4,102.7c-11.5,32.5-24.2,55.9-55,79.1c-19.3,12.8-35.8,10.4-49.1-7.1
		c-4.9-6.4-12.6-10.1-20.6-10.1c-2,0-4,0.2-6,0.7C81.3,170.5,67,162,60,139.9c-9.3-37.4-4.5-63.6,7-96.1c4.6-13,14.1-24.8,26-32.1
		c7.9-4.9,16-7.4,23.7-7.4c3.8,0,7.4,0.6,10.9,1.8c13.5,4.8,22,17.8,25.8,25.2c3.9,7.4,12.9,10.6,20.6,7.3
		c7.6-3.3,22.4-8.1,35.9-3.3c10.5,3.7,18.8,13,23.4,26.1C238,74.6,238,89.7,233.4,102.7L233.4,102.7z"/>
	<path class="st0" d="M122.2,37.3c-11.4,2.5-23.1,14-27.9,27.4c-1.4,4.1-5.3,6.7-9.4,6.7c-1.1,0-2.2-0.2-3.3-0.6
		c-5.2-1.8-7.9-7.6-6.1-12.8c7.1-20.1,24.2-36.3,42.4-40.3c5.4-1.2,10.7,2.2,11.9,7.6C131,30.8,127.6,36.1,122.2,37.3z"/>
	<path class="st0" d="M218.9,0c-2.4,1.4-5.4,1.8-8.3,0.7c-0.9-0.3-1.8-0.6-2.6-0.7H218.9z"/>
	<path class="st0" d="M991.4,689.9c-26.8,7-42.1,13.8-47.8,17.5c4,5.5,16,17.2,38.6,33.1c6.2,4.3,12.2,8.3,17.7,11.8v23.4
		c-6.7-3.9-13.6-8.2-19.8-12.4l1.6,46.5c0,1.3,0.3,3.8,1.8,5.4c4.5,4.6,10.1,8.5,16.4,11.5v21.5c-11.9-4.3-22.6-10.8-30.8-19.2
		c-4.6-4.7-7.2-11.3-7.5-18.6l-2.1-61.6c-7.4-5.6-15.9-12.5-22.9-19.3c-11.2-10.9-15.5-18.7-14.2-25.9c0.7-3.6,2.7-6.9,6.3-10
		c3.6-3.1,8.9-6.2,16.1-9.3c12-5.3,26.6-9.7,36.7-12.5c5.1-1.4,11.5-3,18.3-4.6v20.5C997.2,688.4,994.3,689.1,991.4,689.9
		L991.4,689.9z"/>
	<path class="st0" d="M154.8,1000H74.9c2.4-1.9,4.9-3.7,7.6-5.3c17.1-10.6,35.5-13.2,51.8-7.4C142.5,990.1,149.3,994.8,154.8,1000
		L154.8,1000z"/>
	<path class="st0" d="M223.4,994.7c-0.8,2.4-2.5,4.2-4.5,5.3H208c-2.7-0.6-5.3-0.5-7.7,0h-31.6c2.3-3.2,5.1-6.5,8.4-9.4
		c11.8-10.6,26-13.7,40.2-8.7C222.5,983.7,225.2,989.4,223.4,994.7L223.4,994.7z"/>
	<path class="st0" d="M840.8,757.3c-21.2,0-38.4,17.2-38.4,38.4s17.2,38.4,38.4,38.4s38.4-17.2,38.4-38.4S862,757.3,840.8,757.3z
		 M840.8,814c-10.1,0-18.4-8.2-18.4-18.4s8.2-18.4,18.4-18.4s18.4,8.2,18.4,18.4S851,814,840.8,814z"/>
	<path class="st0" d="M945.7,1000H925l-5.9-21.3c-10.5-37.8-15.3-53.5-26.7-59.6c-12.1-6.5-30.7-1.3-67.7,9
		c-37,10.3-55.6,15.5-62.6,27.3c-5.3,8.9-3.8,20.8,2.5,44.6h-20.7c-6-24.3-7.5-40.4,1-54.8c11.1-18.8,32.2-24.7,74.4-36.4
		c42.2-11.8,63.4-17.7,82.5-7.3c19.4,10.5,25.4,32.3,36.5,71.9L945.7,1000L945.7,1000z"/>
	<path class="st0" d="M621.7,879c-15,0-27.2,12.2-27.2,27.2s12.2,27.2,27.2,27.2s27.2-12.2,27.2-27.2S636.7,879,621.7,879z
		 M621.7,913.4c-4,0-7.2-3.2-7.2-7.2s3.2-7.2,7.2-7.2s7.2,3.2,7.2,7.2S625.7,913.4,621.7,913.4z"/>
	<path class="st0" d="M489.4,977.4c-0.1,1,0,3.3,0.1,5.6l0.2,3.9c0.2,5.1,0.4,9.3,0,13.1h-29.6l0.3-0.1c3.7-0.8,7.8-1.7,9.5-2.4
		c0.3-1.7,0.1-6-0.1-9.7l-0.2-3.9c-0.3-5.8-0.4-9.6,1.1-13.6c1.5-4,4.2-6.8,9.1-11.9c11.7-12.1,24.3-32.6,18.2-61
		c-1.2-5.4,2.3-10.7,7.7-11.9s10.7,2.3,11.9,7.7c6.2,28.8-2.1,56.9-23.3,79C492.2,974.3,490.2,976.4,489.4,977.4L489.4,977.4z"/>
	<path class="st0" d="M518.8,847c-0.9-4.1-4.2-7.2-8.4-7.8l-8-1.2c-9.4-1.4-13.7-2-16.1-3.6c-2.4-1.5-4.7-5.2-9.9-13.2l-4.3-6.8
		c-2.2-3.5-6.5-5.3-10.5-4.4c-4.1,0.9-7.2,4.2-7.8,8.3l-1.2,8c-1.4,9.5-2,13.7-3.6,16.1c-1.5,2.4-5.2,4.7-13.2,9.8l-6.9,4.3
		c-3.5,2.2-5.3,6.4-4.4,10.5c0.9,4.1,4.2,7.2,8.4,7.8l8,1.2c9.4,1.4,13.7,2,16.1,3.6c2.4,1.5,4.7,5.2,9.9,13.2l4.3,6.8
		c1.9,2.9,5.1,4.7,8.5,4.7c0.7,0,1.4-0.1,2.1-0.2c4.1-0.9,7.2-4.2,7.8-8.3l1.2-8c1.4-9.5,2-13.7,3.6-16.1c1.5-2.4,5.2-4.7,13.2-9.8
		l6.8-4.3C517.9,855.3,519.7,851.1,518.8,847z M477.5,860.9c-1.5,2.3-2.6,4.7-3.4,7.4c-1.9-2.1-3.8-3.8-6.2-5.4
		c-2.4-1.5-4.7-2.6-7.4-3.4c2.1-1.9,3.9-3.8,5.4-6.2c1.5-2.3,2.6-4.7,3.4-7.4c1.9,2.1,3.8,3.8,6.2,5.4c2.4,1.5,4.7,2.6,7.4,3.4
		C480.8,856.6,479,858.5,477.5,860.9z"/>
	<path class="st0" d="M436.7,829.3c0,5.5-4.4,10-9.9,10.1c-4.8,0-9.6,0.6-14.3,1.6c-18.7,4-34.8,15.2-45.2,31.5
		c-10.4,16.4-13.9,35.9-9.8,55.1c4.9,22.8,18.9,39.5,40.5,48.4c6.6,2.7,10.2,4.2,13.2,7.2c3,3,4.4,6.6,6.5,11.9l1.4,3.6
		c0.2,0.4,0.4,0.9,0.5,1.3h-21.5c-0.5-1.2-0.9-2.2-1.2-2.8c-1.1-0.6-3.8-1.7-6.5-2.8c-27.6-11.3-46.3-33.6-52.5-62.7
		c-5.2-24.3-0.8-49.2,12.5-70c13.3-20.9,33.8-35.2,57.9-40.3c6-1.3,12.2-2,18.4-2C432.2,819.3,436.6,823.8,436.7,829.3L436.7,829.3z
		"/>
	<path class="st0" d="M246.8,796.1c-21.2,0-38.4,17.2-38.4,38.4s17.2,38.4,38.4,38.4s38.4-17.2,38.4-38.4S268,796.1,246.8,796.1
		L246.8,796.1z M246.8,852.9c-10.1,0-18.4-8.2-18.4-18.4s8.2-18.4,18.4-18.4s18.4,8.2,18.4,18.4S257,852.9,246.8,852.9L246.8,852.9z
		"/>
	<path class="st0" d="M142.7,719.9c-9.4-9.1-21.5-18.4-30-24.5c-15.9-11.5-46.7-31.6-61.5-34.2c-10.8-1.9-32.8,1.8-51.2,6v20.5
		c23.2-5.6,42-7.9,47.7-6.8c6.4,1.2,26.7,12,49.6,28.1c22.6,15.9,34.7,27.6,38.6,33.1c-5.6,3.8-21,10.5-47.8,17.5
		c-27.1,7.1-49.9,10.2-56.2,9c-4.7-0.8-16.8-6.8-31.8-16.3v23.4c10.8,6.3,21.3,11.4,28.3,12.6c2,0.4,4.4,0.5,7.1,0.5
		c12.4,0,31.1-3.5,46.7-7.1l-17.7,43c-0.5,1.2-1.7,3.5-3.6,4.4c-17.4,8.3-42,6.7-60.8-2.4v21.5c11,4,23,6.1,34.8,6.1
		s24.3-2.3,34.6-7.2c5.9-2.8,10.7-8.1,13.5-14.8l23.5-57c2.8-0.8,5.8-1.8,8.8-2.8l-10.1,55.7c-10,12.5-15.8,20.9-22.5,34.6
		c-0.2,0.3-0.3,0.6-0.4,1c-2,5.4-3.7,13.5,4,20.8c2.5,2.4,5.7,3.9,9.5,4.6l16.3,3c1.2,0.2,2.5,0.3,3.7,0.3c2.6,0,5.1-0.5,7.3-1.5
		c9.5-4.3,10.6-12.3,10.6-17.9c0-0.3,0-0.6,0-0.8c-1.1-13.6-3.7-23.5-9-40.4l12.2-67.8c12.7-5.9,18.6-11.4,19.9-18.2
		C158.2,738.6,153.9,730.9,142.7,719.9L142.7,719.9z M101.5,869.9c2.9-6,5.7-10.7,9.1-15.6c1.6,6.3,2.6,11.7,3.2,17.8L101.5,869.9z"
		/>
	<path class="st0" d="M139.8,360c-1.3,4.3-5.3,7.1-9.6,7.1c-0.9,0-1.9-0.1-2.9-0.4l-62.7-18.9c-5.3-1.6-8.3-7.2-6.7-12.5
		c1.6-5.3,7.2-8.3,12.5-6.7l62.7,18.9C138.4,349.2,141.4,354.8,139.8,360L139.8,360z"/>
	<path class="st0" d="M95.9,392.4c-1.3,4.3-5.3,7.1-9.6,7.1c-1,0-1.9-0.1-2.9-0.4l-31.3-9.5c-5.3-1.6-8.3-7.2-6.7-12.5
		c1.6-5.3,7.2-8.3,12.5-6.7l31.4,9.5C94.5,381.5,97.5,387.1,95.9,392.4L95.9,392.4z"/>
	<path class="st0" d="M187.9,408.7l-21.8,72.4c0,0.1-0.1,0.2-0.1,0.4c0,0.1-0.1,0.3-0.1,0.4c-1.6,5.3-7.2,8.3-12.5,6.7
		c-9.1-2.8-18.8,2.4-21.5,11.6c-1.3,4.4-0.9,9.1,1.3,13.2c2.2,4.1,5.8,7,10.2,8.4c5.3,1.6,8.3,7.2,6.7,12.5
		c-1.3,4.3-5.3,7.1-9.6,7.1c-1,0-1.9-0.1-2.9-0.4L0,499.4v-20.9l111.8,33.7c-1.1-5.8-0.8-11.9,0.9-17.8c1.8-6,5-11.2,9.1-15.3
		L1.8,442.9c-0.6-0.2-1.2-0.3-1.8-0.4v-20.2c2.5,0.2,5.1,0.7,7.6,1.5l142,42.8l19.1-63.6c11.1-36.7,16.6-55.2,10-67.4
		c-6.6-12.3-25-17.8-61.8-28.9l-10.4-3.1c-36.7-11.1-55.2-16.6-67.4-10c-12.3,6.6-17.8,25-28.9,61.7L0,389.1v-68.4
		c7.9-23.5,15.2-37.1,29.6-44.9c19.6-10.5,40.7-4.2,82.7,8.5l10.5,3.1c42,12.6,63.1,19,73.6,38.6
		C206.9,345.6,200.5,366.7,187.9,408.7z"/>
	<path class="st0" d="M168.5,602c-15,0-27.2,12.2-27.2,27.2s12.2,27.2,27.2,27.2s27.2-12.2,27.2-27.2S183.5,602,168.5,602z
		 M168.5,636.3c-3.9,0-7.2-3.2-7.2-7.2s3.2-7.2,7.2-7.2s7.2,3.2,7.2,7.2S172.5,636.3,168.5,636.3z"/>
	<path class="st0" d="M478.8,619.3l-5.7-7l-15.9-84.2c-4.2-22.2-6.5-34.4-17.4-41.8c-10.9-7.4-23.1-5.1-45.3-1l-85.8,16.2
		c-22.2,4.2-34.4,6.5-41.8,17.4c-7.4,10.9-5.1,23.1-1,45.3l15.8,83.8l-2.7,9.1c-9.8,30.7-13.2,51.2-1.5,65.4
		c5.9,7.2,13.7,9.8,24.3,9.8c10.3,0,23.3-2.5,39.9-5.6L445.7,707c33.9-6.4,52.6-9.9,58.3-27.3C509.8,662.2,499.1,644.3,478.8,619.3
		L478.8,619.3z M283.4,530.1c2.8-4,12.6-5.9,29-9l85.8-16.2c16.4-3.1,26.3-5,30.3-2.2c4,2.8,5.9,12.6,9,29l14.3,76l-152,28.6
		l-14.3-76C282.5,544.1,280.7,534.2,283.4,530.1L283.4,530.1z M485,673.5c-2,6.2-18.3,9.2-43,13.9L338.1,707
		c-24.7,4.7-41,7.7-45.1,2.7c-5-6.1-3.5-19.6,5.2-46.6c0-0.1,0-0.1,0.1-0.2l1.8-6.1l159-30l4.2,5.2C481.2,654,487.5,666,485,673.5
		L485,673.5z"/>
	<path class="st0" d="M350.5,525.2c-0.6,0.1-1.3,0.2-1.9,0.2c-4.7,0-8.9-3.3-9.9-8.1c-1-5.4,2.5-10.6,7.9-11.7l0.1,0
		c5.4-1,10.7,2.5,11.7,7.9C359.5,519,355.9,524.2,350.5,525.2z"/>
	<path class="st0" d="M576.7,490.4c-26.4,0-47.9,21.5-47.9,47.9s21.5,47.9,47.9,47.9s47.9-21.5,47.9-47.9S603.1,490.4,576.7,490.4z
		 M576.7,566.3c-15.4,0-27.9-12.5-27.9-27.9s12.5-27.9,27.9-27.9s27.9,12.5,27.9,27.9S592.1,566.3,576.7,566.3z"/>
	<path class="st0" d="M789.6,663.3l-71.4,123.9c-10.7,18.5-30.1,28.9-50.1,28.9c-9.8,0-19.7-2.5-28.7-7.7
		c-13.3-7.7-22.9-20.1-26.9-35c-4-14.9-2-30.4,5.7-43.8l26.8-46.5c11-19,35.3-25.6,54.3-14.6c9.2,5.3,15.8,13.9,18.6,24.2
		c2.8,10.3,1.4,21-4,30.2l-14.9,25.8c-2.8,4.8-8.9,6.4-13.7,3.7s-6.4-8.9-3.7-13.7l14.9-25.8c2.6-4.6,3.3-9.9,2-15
		c-1.4-5.1-4.7-9.4-9.2-12c-9.5-5.5-21.6-2.2-27,7.3l-26.8,46.5c-5,8.7-6.3,18.9-3.7,28.6c2.6,9.7,8.8,17.8,17.6,22.9
		c18,10.4,41.1,4.2,51.5-13.8l71.4-123.9c10.4-18,4.2-41.1-13.8-51.5c-8.7-5-18.9-6.3-28.6-3.7c-9.7,2.6-17.8,8.9-22.8,17.6
		l-11.9,20.7c-2.8,4.8-8.9,6.4-13.7,3.7c-4.8-2.8-6.4-8.9-3.7-13.7l11.9-20.7c7.7-13.3,20.1-22.9,35-26.9s30.4-2,43.8,5.7
		C796,600.5,805.5,635.8,789.6,663.3L789.6,663.3z"/>
	<path class="st0" d="M886.9,559.7c-15,0-27.2,12.2-27.2,27.2s12.2,27.2,27.2,27.2s27.2-12.2,27.2-27.2S901.8,559.7,886.9,559.7z
		 M886.9,594c-4,0-7.2-3.2-7.2-7.2s3.2-7.2,7.2-7.2s7.2,3.2,7.2,7.2S890.8,594,886.9,594z"/>
	<path class="st0" d="M1000,389.1l-10.2,33.7c3.3-0.6,6.8-0.8,10.2-0.5v20.2c-3.9-0.7-7.8-0.1-11.3,1.8c-4.1,2.2-7,5.8-8.4,10.2
		c-2.8,9.1,2.4,18.8,11.6,21.5l8.1,2.5v20.9l-13.9-4.2c-19.7-5.9-30.9-26.8-25-46.5l29.9-99.3c3.3-10.9,6.2-20.5,8.9-28.7
		L1000,389.1L1000,389.1z"/>
	<path class="st0" d="M851.3,279.5c-14.7-21-40.2-25.4-91-34.3c-50.8-8.9-76.3-13.3-97.3,1.4s-25.4,40.2-34.3,91
		c-8.9,50.8-13.3,76.3,1.4,97.3s40.2,25.4,91,34.3c27,4.7,46.9,8.2,62.7,8.2c14,0,24.8-2.7,34.6-9.6c21-14.7,25.4-40.2,34.3-91
		C861.5,325.9,866,300.4,851.3,279.5L851.3,279.5z M833,373.3c-7.9,45.4-11.9,68.1-26.1,78.1c-14.2,10-37,6-82.3-1.9
		c-45.4-7.9-68.1-11.9-78.1-26.1c-4.2-6-5.9-13.5-5.9-23.5c0-13.8,3.3-32.5,7.8-58.8c7.9-45.4,11.9-68.1,26.1-78.1
		c6-4.2,13.5-5.9,23.5-5.9c13.8,0,32.5,3.3,58.8,7.9c45.4,7.9,68.1,11.9,78.1,26.1S840.9,327.9,833,373.3z"/>
	<path class="st0" d="M792.5,341.9c-34.1,11.6-68,60.5-68.3,61c-1.9,2.7-5,4.3-8.2,4.3c-0.4,0-0.8,0-1.2-0.1
		c-3.7-0.4-6.8-2.9-8.2-6.4c-5-13.1-18.5-24.5-18.6-24.6c-4.2-3.5-4.8-9.8-1.3-14.1c3.5-4.2,9.8-4.8,14.1-1.3
		c0.5,0.4,9.1,7.6,16.5,18.1c13.7-17,40.3-46.2,68.8-55.9c5.2-1.8,10.9,1,12.7,6.2C800.6,334.4,797.8,340.1,792.5,341.9z"/>
	<path class="st0" d="M932.4,180.3c-21.2,0-38.4,17.2-38.4,38.4s17.2,38.4,38.4,38.4s38.4-17.2,38.4-38.4S953.6,180.3,932.4,180.3
		L932.4,180.3z M932.4,237c-10.1,0-18.4-8.2-18.4-18.4s8.2-18.4,18.4-18.4s18.4,8.2,18.4,18.4S942.5,237,932.4,237z"/>
	<path class="st0" d="M963,113.2c-14.8,14.1-41.5,3.9-63-4.3c-5.3-2-10.2-3.9-13.6-4.8c-7-1.9-11.6-3.2-13.4-2.7
		c-1.8,0.5-5.1,4-10.1,9.2c-2.4,2.6-5.7,6.8-9.2,11.2c-12.9,16.6-28.7,36.8-46.6,36.8c-1.7,0-3.4-0.2-5.1-0.6
		c-15.2-3.4-19.3-18.3-26.9-45.5l-24.2-87c-2.6-9.5-5-17.9-6.9-25.6h20.7c1.6,5.9,3.4,12.6,5.5,20.2l24.2,87
		c4.2,15,8.5,30.6,12,31.4c0.9,0.2,4.6,0.3,12.6-7c6.6-6.1,13.2-14.6,19-22c3.9-5,7.3-9.4,10.4-12.6c7.5-8,12.1-12.8,19.3-14.8
		c7.2-2,13.6-0.2,24.1,2.7c4.3,1.2,9.5,3.2,15.4,5.4c8.9,3.4,18.9,7.2,27.7,9c10.6,2.2,13.7,0.2,14.4-0.5c2.6-2.5-1.8-18-5.9-33.1
		L925,0h20.8l16.8,60.3C970.1,87.5,974.3,102.5,963,113.2z"/>
	<path class="st0" d="M609.8,41.3c-30.8,0-55.8,25-55.8,55.8s25,55.8,55.8,55.8s55.8-25,55.8-55.8S640.5,41.3,609.8,41.3z
		 M609.8,132.9c-19.7,0-35.8-16.1-35.8-35.8s16-35.8,35.8-35.8s35.8,16.1,35.8,35.8S629.5,132.9,609.8,132.9z"/>
	<path class="st0" d="M290.1,384.8c-21.2,0-38.4,17.2-38.4,38.4s17.2,38.4,38.4,38.4s38.4-17.2,38.4-38.4S311.3,384.8,290.1,384.8z
		 M290.1,441.6c-10.1,0-18.4-8.2-18.4-18.4s8.2-18.4,18.4-18.4s18.4,8.2,18.4,18.4S300.3,441.6,290.1,441.6z"/>
	<path class="st0" d="M567.5,215.6c-4.8-8.7-13.4-10.3-25.3-12.5l-1.5-0.3c0.9-8.4,0.3-16-6.5-25c-8.4-11.1-19.5-13.2-36.3-16.3
		l-71.3-13.2c-16.9-3.1-28-5.2-39.8,2.2c-9.6,6-12.8,12.8-15,21l-1.5-0.3c-11.9-2.2-20.5-3.8-28.1,2.6c-7.7,6.5-7.5,14.7-7.2,25.2
		c0.5,19.3,6.1,37.5,16,52.5c1.9,2.9,5.1,4.5,8.4,4.5c1.9,0,3.8-0.5,5.5-1.7c4.6-3.1,5.9-9.3,2.8-13.9c-7.9-11.9-12.3-26.4-12.7-42
		c-0.1-3.6-0.2-7.6,0.1-9.2c1.9-0.2,7,0.8,11.6,1.6l1.6,0.3c-0.1,2.1-0.2,4.1-0.2,6.1c0,37.4,24.7,71.1,61,82.3l-8.6,46.2
		c-17.7,0-34.9,8.6-46.4,23.9c-4.6,6-5.7,13.8-3,20.8c2.6,6.8,8.3,11.6,15.2,12.8l65.3,12.1c1.2,0.2,2.4,0.3,3.6,0.3
		c5.7,0,11.2-2.4,15.2-6.9c5-5.5,6.8-13.2,4.6-20.5c-3.2-10.9-9-20.3-16.7-27.5c-5.2-4.9-11.4-8.8-18.1-11.4l8.6-46.2
		c2,0.1,4,0.2,5.9,0.2c37.6,0,71.4-24.6,82.5-60.9l1.6,0.3c4.5,0.8,9.6,1.8,11.4,2.6c-0.3,1.6-1.8,5.3-3.2,8.6
		c-6,14.4-15.3,26.4-26.9,34.6c-4.5,3.2-5.6,9.4-2.4,13.9c2,2.7,5,4.2,8.2,4.2c2,0,4-0.6,5.8-1.9c14.7-10.4,26.3-25.4,33.8-43.2
		C569.2,232.1,572.3,224.4,567.5,215.6L567.5,215.6z M455.5,373.9c0.1,0.5,0.1,0.9-0.1,1.2c-0.2,0.3-0.5,0.5-0.5,0.5l-65.2-12.1
		c-0.1,0-0.3-0.3-0.3-0.7c-0.1-0.4,0-0.8,0.4-1.2c7.7-10.2,19-16,30.6-16c2.1,0,4.2,0.2,6.3,0.6
		C440.2,348.8,451.2,359.4,455.5,373.9L455.5,373.9z M520,206.7c-0.1,0.8-0.2,1.6-0.4,2.4c0,0.1,0,0.3-0.1,0.4
		c-6.6,35.8-41.3,59.4-77.3,52.8c-36-6.7-59.9-41.2-53.2-77c0-0.1,0-0.3,0.1-0.4c0.2-0.8,0.3-1.6,0.5-2.4c2.4-10.2,2.9-12,7.7-15
		c5-3.1,10.1-2.3,25.5,0.5l71.3,13.2c15.5,2.9,20.5,4,24,8.7C521.6,194.4,521.4,196.3,520,206.7L520,206.7z"/>
	<path class="st0" d="M246.8,229.9c-15,0-27.2,12.2-27.2,27.2s12.2,27.2,27.2,27.2S274,272,274,257S261.8,229.9,246.8,229.9z
		 M246.8,264.2c-3.9,0-7.2-3.2-7.2-7.2s3.2-7.2,7.2-7.2s7.2,3.2,7.2,7.2C254,261,250.8,264.2,246.8,264.2z"/>
</g>
</svg>
